# xmcd
#
# Track frame offsets:
#	150
#	18134
#	28783
#	50689
#	64756
#	80559
#	93784
#	110524
#	121850
#	139233
#	155759
#
# Disc length: 2237 seconds
# Revision: 0
# Processed by: cddbd v1.5.2PL0 Copyright (c) Steve Scherf et al.
# Submitted via: dBpowerAMP V12.0
#
DISCID=8d08bb0b
DTITLE=Bruno Brel - 20 ans de scene
DYEAR=2006
DGENRE=Chanson
TTITLE0=J'aurai voulu t'aimer
TTITLE1=Ma fille
TTITLE2=La riviere bambou
TTITLE3=Le silence de l'absence
TTITLE4=Le veilleur de nuit
TTITLE5=La veuve
TTITLE6=La fille que tu aimais
TTITLE7=La valse a Saint-Val
TTITLE8=Nancy
TTITLE9=La terre de Picardie
TTITLE10=Canard du soir
EXTD=
EXTT0=
EXTT1=
EXTT2=
EXTT3=
EXTT4=
EXTT5=
EXTT6=
EXTT7=
EXTT8=
EXTT9=
EXTT10=
PLAYORDER=
